<?xml version="1.0" standalone="no"?><svg xmlns="http://www.w3.org/2000/svg" viewBox="0 0 1440 320"><path fill="#e69c23" fill-opacity="1" d="M0,64L24,64C48,64,96,64,144,101.3C192,139,240,213,288,229.3C336,245,384,203,432,170.7C480,139,528,117,576,122.7C624,128,672,160,720,197.3C768,235,816,277,864,277.3C912,277,960,235,1008,218.7C1056,203,1104,213,1152,202.7C1200,192,1248,160,1296,144C1344,128,1392,128,1416,128L1440,128L1440,0L1416,0C1392,0,1344,0,1296,0C1248,0,1200,0,1152,0C1104,0,1056,0,1008,0C960,0,912,0,864,0C816,0,768,0,720,0C672,0,624,0,576,0C528,0,480,0,432,0C384,0,336,0,288,0C240,0,192,0,144,0C96,0,48,0,24,0L0,0Z"></path></svg>